M48
; DRILL file {KiCad 6.0.11-2627ca5db0~126~ubuntu20.04.1} date ponedjeljak, 03. studenoga 2025. 09:49:46 CET
; FORMAT={-:-/ absolute / metric / decimal}
; #@! TF.CreationDate,2025-11-03T09:49:46+01:00
; #@! TF.GenerationSoftware,Kicad,Pcbnew,6.0.11-2627ca5db0~126~ubuntu20.04.1
; #@! TF.FileFunction,Plated,1,2,PTH
FMAT,2
METRIC
; #@! TA.AperFunction,Plated,PTH,ComponentDrill
T1C0.800
; #@! TA.AperFunction,Plated,PTH,ComponentDrill
T2C0.900
; #@! TA.AperFunction,Plated,PTH,ComponentDrill
T3C1.300
%
G90
G05
T1
X76.383Y-99.408
X77.1Y-101.275
X77.817Y-103.142
X81.0Y-82.0
X81.0Y-89.62
X84.0Y-82.0
X84.0Y-89.62
X87.0Y-82.0
X87.0Y-89.62
X90.0Y-82.0
X90.0Y-89.62
X93.0Y-82.0
X93.0Y-89.62
X96.0Y-82.0
X96.0Y-89.62
X101.19Y-82.0
X101.19Y-84.54
X101.19Y-87.08
X101.19Y-89.62
X102.5Y-78.75
X107.5Y-78.75
X108.81Y-82.0
X108.81Y-84.54
X108.81Y-87.08
X108.81Y-89.62
X114.0Y-82.0
X114.0Y-89.62
X117.0Y-82.0
X117.0Y-89.62
X120.0Y-82.0
X120.0Y-89.62
X123.0Y-82.0
X123.0Y-89.62
X126.0Y-82.0
X126.0Y-89.62
X129.0Y-82.0
X129.0Y-89.62
T2
X75.0Y-75.7
X75.0Y-78.24
X75.0Y-80.78
X85.0Y-72.5
X85.0Y-75.04
X85.0Y-77.58
X95.0Y-70.5
X95.0Y-73.04
X95.0Y-75.58
X105.0Y-70.0
X105.0Y-72.54
X105.0Y-75.08
X115.0Y-70.5
X115.0Y-73.04
X115.0Y-75.58
X125.0Y-72.5
X125.0Y-75.04
X125.0Y-77.58
X135.0Y-75.7
X135.0Y-78.24
X135.0Y-80.78
T3
X98.75Y-118.0
X98.75Y-123.0
X111.25Y-118.0
X111.25Y-123.0
T1
X75.957Y-97.322G85X75.304Y-97.573
G05
X78.896Y-104.977G85X78.243Y-105.228
G05
T0
M30
