%TF.GenerationSoftware,KiCad,Pcbnew,6.0.11-2627ca5db0~126~ubuntu20.04.1*%
%TF.CreationDate,2025-11-03T09:49:47+01:00*%
%TF.ProjectId,attiny85_catch_me_bcl-2,61747469-6e79-4383-955f-63617463685f,1.0*%
%TF.SameCoordinates,Original*%
%TF.FileFunction,Drillmap*%
%TF.FilePolarity,Positive*%
%FSLAX45Y45*%
G04 Gerber Fmt 4.5, Leading zero omitted, Abs format (unit mm)*
G04 Created by KiCad (PCBNEW 6.0.11-2627ca5db0~126~ubuntu20.04.1) date 2025-11-03 09:49:47*
%MOMM*%
%LPD*%
G01*
G04 APERTURE LIST*
%ADD10C,0.200000*%
G04 APERTURE END LIST*
D10*
X8960000Y-9400000D02*
G75*
G03*
X8960000Y-9400000I-160000J0D01*
G01*
X8912400Y-12900000D02*
X12087600Y-12900000D01*
X12360000Y-9400000D02*
G75*
G03*
X12360000Y-9400000I-160000J0D01*
G01*
X6629400Y-7851681D02*
X8437715Y-12611643D01*
X9075000Y-12427500D02*
G75*
G03*
X9075000Y-12427500I-200000J0D01*
G01*
X6832600Y-7315200D02*
G75*
G03*
X6629400Y-7851681I171031J-371503D01*
G01*
X8437716Y-12611643D02*
G75*
G03*
X8912400Y-12900000I459884J222163D01*
G01*
X9260000Y-11400000D02*
G75*
G03*
X9260000Y-11400000I-160000J0D01*
G01*
X12060000Y-11400000D02*
G75*
G03*
X12060000Y-11400000I-160000J0D01*
G01*
X14166701Y-7318280D02*
G75*
G03*
X6832600Y-7315200I-3670033J-7099763D01*
G01*
X12087600Y-12899994D02*
G75*
G03*
X12562285Y-12611643I15950J508634D01*
G01*
X12562285Y-12611643D02*
X14369901Y-7851681D01*
X14369904Y-7851682D02*
G75*
G03*
X14166701Y-7318281I-377954J161422D01*
G01*
X6842268Y-13220720D02*
X6842268Y-13020720D01*
X6889887Y-13020720D01*
X6918458Y-13030244D01*
X6937506Y-13049291D01*
X6947030Y-13068339D01*
X6956553Y-13106434D01*
X6956553Y-13135006D01*
X6947030Y-13173101D01*
X6937506Y-13192148D01*
X6918458Y-13211196D01*
X6889887Y-13220720D01*
X6842268Y-13220720D01*
X7042268Y-13220720D02*
X7042268Y-13087387D01*
X7042268Y-13125482D02*
X7051792Y-13106434D01*
X7061315Y-13096910D01*
X7080363Y-13087387D01*
X7099411Y-13087387D01*
X7166077Y-13220720D02*
X7166077Y-13087387D01*
X7166077Y-13020720D02*
X7156553Y-13030244D01*
X7166077Y-13039768D01*
X7175601Y-13030244D01*
X7166077Y-13020720D01*
X7166077Y-13039768D01*
X7289887Y-13220720D02*
X7270839Y-13211196D01*
X7261315Y-13192148D01*
X7261315Y-13020720D01*
X7394649Y-13220720D02*
X7375601Y-13211196D01*
X7366077Y-13192148D01*
X7366077Y-13020720D01*
X7623220Y-13220720D02*
X7623220Y-13020720D01*
X7689887Y-13163577D01*
X7756553Y-13020720D01*
X7756553Y-13220720D01*
X7937506Y-13220720D02*
X7937506Y-13115958D01*
X7927982Y-13096910D01*
X7908934Y-13087387D01*
X7870839Y-13087387D01*
X7851792Y-13096910D01*
X7937506Y-13211196D02*
X7918458Y-13220720D01*
X7870839Y-13220720D01*
X7851792Y-13211196D01*
X7842268Y-13192148D01*
X7842268Y-13173101D01*
X7851792Y-13154053D01*
X7870839Y-13144529D01*
X7918458Y-13144529D01*
X7937506Y-13135006D01*
X8032744Y-13087387D02*
X8032744Y-13287387D01*
X8032744Y-13096910D02*
X8051792Y-13087387D01*
X8089887Y-13087387D01*
X8108934Y-13096910D01*
X8118458Y-13106434D01*
X8127982Y-13125482D01*
X8127982Y-13182625D01*
X8118458Y-13201672D01*
X8108934Y-13211196D01*
X8089887Y-13220720D01*
X8051792Y-13220720D01*
X8032744Y-13211196D01*
X8213696Y-13201672D02*
X8223220Y-13211196D01*
X8213696Y-13220720D01*
X8204173Y-13211196D01*
X8213696Y-13201672D01*
X8213696Y-13220720D01*
X8213696Y-13096910D02*
X8223220Y-13106434D01*
X8213696Y-13115958D01*
X8204173Y-13106434D01*
X8213696Y-13096910D01*
X8213696Y-13115958D01*
M02*
